<svg xmlns="http://www.w3.org/2000/svg" xmlns:xlink="http://www.w3.org/1999/xlink" width="350" zoomAndPan="magnify" viewBox="0 0 262.5 104.999996" height="140" preserveAspectRatio="xMidYMid meet" version="1.0"><defs><g/><clipPath id="a922dcd7b4"><path d="M 0 0.101562 L 262 0.101562 L 262 104.898438 L 0 104.898438 Z M 0 0.101562 " clip-rule="nonzero"/></clipPath></defs><g clip-path="url(#a922dcd7b4)"><path fill="#ffffff" d="M 0 0.101562 L 262.5 0.101562 L 262.5 112.601562 L 0 112.601562 Z M 0 0.101562 " fill-opacity="1" fill-rule="nonzero"/><path fill="#ffffff" d="M 0 0.101562 L 262.5 0.101562 L 262.5 105.101562 L 0 105.101562 Z M 0 0.101562 " fill-opacity="1" fill-rule="nonzero"/><path fill="#0c2a43" d="M 0 0.101562 L 262.5 0.101562 L 262.5 105.101562 L 0 105.101562 Z M 0 0.101562 " fill-opacity="1" fill-rule="nonzero"/></g><g fill="#ffffff" fill-opacity="1"><g transform="translate(12.210936, 72.099797)"><g><path d="M 16.171875 0 L -0.46875 -37.40625 L 6.625 -37.40625 L 20.0625 -5.984375 L 17.90625 -5.984375 L 31.515625 -37.40625 L 38.34375 -37.40625 L 21.75 0 Z M 16.171875 0 "/></g></g></g><g fill="#ffffff" fill-opacity="1"><g transform="translate(50.088792, 72.099797)"><g><path d="M 4.046875 0 L 4.046875 -37.40625 L 10.828125 -37.40625 L 10.828125 0 Z M 4.046875 0 "/></g></g></g><g fill="#ffffff" fill-opacity="1"><g transform="translate(65.008784, 72.099797)"><g><path d="M 4.046875 0 L 4.046875 -37.40625 L 17.8125 -37.40625 C 21.90625 -37.40625 25.382812 -36.664062 28.25 -35.1875 C 31.125 -33.71875 33.320312 -31.59375 34.84375 -28.8125 C 36.375 -26.03125 37.140625 -22.675781 37.140625 -18.75 C 37.140625 -14.789062 36.375 -11.410156 34.84375 -8.609375 C 33.320312 -5.804688 31.117188 -3.671875 28.234375 -2.203125 C 25.347656 -0.734375 21.875 0 17.8125 0 Z M 10.828125 -5.515625 L 17.390625 -5.515625 C 21.691406 -5.515625 24.921875 -6.617188 27.078125 -8.828125 C 29.234375 -11.035156 30.3125 -14.34375 30.3125 -18.75 C 30.3125 -27.507812 26.003906 -31.890625 17.390625 -31.890625 L 10.828125 -31.890625 Z M 10.828125 -5.515625 "/></g></g></g><g fill="#ffffff" fill-opacity="1"><g transform="translate(104.98805, 72.099797)"><g><path d="M 4.046875 0 L 4.046875 -37.40625 L 29.046875 -37.40625 L 29.046875 -32.09375 L 10.65625 -32.09375 L 10.65625 -21.703125 L 28 -21.703125 L 28 -16.34375 L 10.65625 -16.34375 L 10.65625 -5.3125 L 29.046875 -5.3125 L 29.046875 0 Z M 4.046875 0 "/></g></g></g><g fill="#ed4545" fill-opacity="1"><g transform="translate(136.242169, 72.099797)"><g><path d="M 15.078125 0.375 C 12.554688 0.375 10.128906 0 7.796875 -0.75 C 5.472656 -1.507812 3.554688 -2.570312 2.046875 -3.9375 L 4.359375 -8.875 C 6.003906 -7.582031 7.691406 -6.609375 9.421875 -5.953125 C 11.160156 -5.304688 12.957031 -4.984375 14.8125 -4.984375 C 17.226562 -4.984375 19.015625 -5.445312 20.171875 -6.375 C 21.328125 -7.3125 21.90625 -8.757812 21.90625 -10.71875 C 21.90625 -12.601562 21.304688 -14 20.109375 -14.90625 C 18.921875 -15.820312 17.085938 -16.28125 14.609375 -16.28125 L 9.671875 -16.28125 L 9.671875 -21.640625 L 13.703125 -21.640625 C 16.117188 -21.640625 17.929688 -22.09375 19.140625 -23 C 20.347656 -23.914062 20.953125 -25.285156 20.953125 -27.109375 C 20.953125 -28.859375 20.425781 -30.1875 19.375 -31.09375 C 18.332031 -32.007812 16.882812 -32.46875 15.03125 -32.46875 C 13.3125 -32.46875 11.59375 -32.140625 9.875 -31.484375 C 8.15625 -30.835938 6.492188 -29.867188 4.890625 -28.578125 L 2.578125 -33.515625 C 4.078125 -34.847656 5.984375 -35.898438 8.296875 -36.671875 C 10.609375 -37.441406 12.972656 -37.828125 15.390625 -37.828125 C 17.835938 -37.828125 19.960938 -37.421875 21.765625 -36.609375 C 23.578125 -35.804688 24.972656 -34.660156 25.953125 -33.171875 C 26.929688 -31.679688 27.421875 -29.941406 27.421875 -27.953125 C 27.421875 -25.703125 26.84375 -23.796875 25.6875 -22.234375 C 24.53125 -20.679688 22.898438 -19.59375 20.796875 -18.96875 L 20.75 -19.484375 C 23.195312 -18.929688 25.078125 -17.859375 26.390625 -16.265625 C 27.703125 -14.671875 28.359375 -12.628906 28.359375 -10.140625 C 28.359375 -6.878906 27.160156 -4.3125 24.765625 -2.4375 C 22.367188 -0.5625 19.140625 0.375 15.078125 0.375 Z M 15.078125 0.375 "/></g></g></g><g fill="#ed4545" fill-opacity="1"><g transform="translate(167.763268, 72.099797)"><g><path d="M 16.96875 0.421875 C 12.269531 0.421875 8.632812 -1.160156 6.0625 -4.328125 C 3.488281 -7.503906 2.203125 -12.066406 2.203125 -18.015625 C 2.203125 -22.179688 2.804688 -25.742188 4.015625 -28.703125 C 5.222656 -31.660156 6.972656 -33.921875 9.265625 -35.484375 C 11.566406 -37.046875 14.289062 -37.828125 17.4375 -37.828125 C 19.675781 -37.828125 21.851562 -37.457031 23.96875 -36.71875 C 26.09375 -35.976562 27.941406 -34.910156 29.515625 -33.515625 L 27.21875 -28.578125 C 25.5 -29.941406 23.84375 -30.929688 22.25 -31.546875 C 20.65625 -32.160156 19.140625 -32.46875 17.703125 -32.46875 C 14.867188 -32.46875 12.6875 -31.234375 11.15625 -28.765625 C 9.632812 -26.296875 8.875 -22.75 8.875 -18.125 L 8.875 -15.28125 L 8.140625 -16.59375 C 8.453125 -18.101562 9.082031 -19.410156 10.03125 -20.515625 C 10.976562 -21.617188 12.144531 -22.472656 13.53125 -23.078125 C 14.914062 -23.691406 16.429688 -24 18.078125 -24 C 20.316406 -24 22.289062 -23.484375 24 -22.453125 C 25.71875 -21.421875 27.066406 -20.003906 28.046875 -18.203125 C 29.023438 -16.398438 29.515625 -14.328125 29.515625 -11.984375 C 29.515625 -9.566406 28.972656 -7.421875 27.890625 -5.546875 C 26.804688 -3.671875 25.328125 -2.207031 23.453125 -1.15625 C 21.578125 -0.101562 19.414062 0.421875 16.96875 0.421875 Z M 16.65625 -4.9375 C 18.582031 -4.9375 20.128906 -5.554688 21.296875 -6.796875 C 22.472656 -8.046875 23.0625 -9.703125 23.0625 -11.765625 C 23.0625 -13.828125 22.472656 -15.476562 21.296875 -16.71875 C 20.128906 -17.96875 18.5625 -18.59375 16.59375 -18.59375 C 15.300781 -18.59375 14.15625 -18.300781 13.15625 -17.71875 C 12.15625 -17.144531 11.375 -16.34375 10.8125 -15.3125 C 10.257812 -14.28125 9.984375 -13.097656 9.984375 -11.765625 C 9.984375 -10.398438 10.257812 -9.207031 10.8125 -8.1875 C 11.375 -7.175781 12.15625 -6.378906 13.15625 -5.796875 C 14.15625 -5.222656 15.320312 -4.9375 16.65625 -4.9375 Z M 16.65625 -4.9375 "/></g></g></g><g fill="#ed4545" fill-opacity="1"><g transform="translate(199.284366, 72.099797)"><g><path d="M 15.765625 0.421875 C 11.347656 0.421875 7.960938 -1.203125 5.609375 -4.453125 C 3.265625 -7.710938 2.09375 -12.460938 2.09375 -18.703125 C 2.09375 -24.929688 3.257812 -29.675781 5.59375 -32.9375 C 7.925781 -36.195312 11.316406 -37.828125 15.765625 -37.828125 C 20.210938 -37.828125 23.597656 -36.195312 25.921875 -32.9375 C 28.253906 -29.675781 29.421875 -24.945312 29.421875 -18.75 C 29.421875 -12.476562 28.242188 -7.710938 25.890625 -4.453125 C 23.546875 -1.203125 20.171875 0.421875 15.765625 0.421875 Z M 15.765625 -4.828125 C 18.179688 -4.828125 19.945312 -5.9375 21.0625 -8.15625 C 22.1875 -10.382812 22.75 -13.914062 22.75 -18.75 C 22.75 -23.550781 22.1875 -27.035156 21.0625 -29.203125 C 19.945312 -31.378906 18.179688 -32.46875 15.765625 -32.46875 C 13.347656 -32.46875 11.578125 -31.367188 10.453125 -29.171875 C 9.328125 -26.984375 8.765625 -23.507812 8.765625 -18.75 C 8.765625 -13.914062 9.328125 -10.382812 10.453125 -8.15625 C 11.578125 -5.9375 13.347656 -4.828125 15.765625 -4.828125 Z M 15.765625 -4.828125 "/></g></g></g><g fill="#ed4545" fill-opacity="1"><g transform="translate(230.805465, 72.099797)"><g><path d="M 9.71875 -21.90625 C 8.25 -21.90625 6.898438 -22.242188 5.671875 -22.921875 C 4.441406 -23.609375 3.476562 -24.554688 2.78125 -25.765625 C 2.082031 -26.972656 1.734375 -28.3125 1.734375 -29.78125 C 1.734375 -31.289062 2.082031 -32.640625 2.78125 -33.828125 C 3.476562 -35.015625 4.441406 -35.953125 5.671875 -36.640625 C 6.898438 -37.328125 8.25 -37.671875 9.71875 -37.671875 C 11.226562 -37.671875 12.585938 -37.328125 13.796875 -36.640625 C 15.003906 -35.953125 15.957031 -35.015625 16.65625 -33.828125 C 17.351562 -32.640625 17.703125 -31.289062 17.703125 -29.78125 C 17.703125 -28.3125 17.351562 -26.972656 16.65625 -25.765625 C 15.957031 -24.554688 15.003906 -23.609375 13.796875 -22.921875 C 12.585938 -22.242188 11.226562 -21.90625 9.71875 -21.90625 Z M 9.71875 -25.484375 C 10.90625 -25.484375 11.894531 -25.882812 12.6875 -26.6875 C 13.476562 -27.488281 13.875 -28.519531 13.875 -29.78125 C 13.875 -31.039062 13.476562 -32.070312 12.6875 -32.875 C 11.894531 -33.6875 10.90625 -34.09375 9.71875 -34.09375 C 8.53125 -34.09375 7.539062 -33.6875 6.75 -32.875 C 5.957031 -32.070312 5.5625 -31.039062 5.5625 -29.78125 C 5.5625 -28.519531 5.957031 -27.488281 6.75 -26.6875 C 7.539062 -25.882812 8.53125 -25.484375 9.71875 -25.484375 Z M 9.71875 -25.484375 "/></g></g></g></svg>