<svg width="336" height="337" xmlns="http://www.w3.org/2000/svg" xmlns:xlink="http://www.w3.org/1999/xlink" xml:space="preserve" overflow="hidden"><defs><clipPath id="clip0"><rect x="-24" y="8" width="336" height="337"/></clipPath><clipPath id="clip1"><rect x="-24" y="9" width="335" height="336"/></clipPath><clipPath id="clip2"><rect x="-24" y="9" width="335" height="336"/></clipPath><clipPath id="clip3"><rect x="-24" y="9" width="335" height="336"/></clipPath></defs><g clip-path="url(#clip0)" transform="translate(24 -8)"><g clip-path="url(#clip1)"><g clip-path="url(#clip2)"><g clip-path="url(#clip3)"><path d="M131.557 175.177 131.557 115.156 167.5 91.4271 203.443 115.156 203.443 175.177 182.854 175.177 182.854 137.141 152.146 137.141 152.146 175.177ZM167.5 283.354C197.976 256.135 221.007 230.255 236.594 205.711 252.18 181.167 259.974 160.055 259.974 142.375 259.974 114.458 251.076 91.6016 233.279 73.8047 215.482 56.0078 193.555 47.1094 167.5 47.1094 141.445 47.1094 119.518 56.0078 101.721 73.8047 83.9245 91.6016 75.026 114.458 75.026 142.375 75.026 160.055 82.9355 181.167 98.7552 205.711 114.575 230.255 137.49 256.135 167.5 283.354ZM167.5 304.292C131.208 272.653 104.106 243.34 86.1927 216.354 68.2795 189.368 59.3229 164.708 59.3229 142.375 59.3229 108.643 70.1985 81.7142 91.9505 61.5911 113.702 41.4679 138.885 31.4062 167.5 31.4062 196.115 31.4062 221.298 41.4679 243.049 61.5911 264.801 81.7142 275.677 108.643 275.677 142.375 275.677 164.708 266.721 189.368 248.807 216.354 230.894 243.34 203.792 272.653 167.5 304.292Z" fill="#F3F1ED" fill-rule="nonzero" fill-opacity="1" transform="matrix(1 0 0 1.00299 -24 9)"/></g></g></g></g></svg>